<svg width="100%" height="100%" viewBox="0 0 1440 900" fill="none" xmlns="http://www.w3.org/2000/svg">
  <rect width="1440" height="900" fill="#F5E9D6"/>
  <!-- Patchwork géométrique, couleurs flashy, pas de blanc -->
  <rect x="0" y="0" width="360" height="225" fill="#E75480"/>
  <rect x="360" y="0" width="360" height="225" fill="#7C3AED"/>
  <rect x="720" y="0" width="360" height="225" fill="#3CB371"/>
  <rect x="1080" y="0" width="360" height="225" fill="#8B5C2D"/>
  <rect x="0" y="225" width="360" height="225" fill="#A7F3D0"/>
  <rect x="360" y="225" width="360" height="225" fill="#F9A8D4"/>
  <rect x="720" y="225" width="360" height="225" fill="#C4B5FD"/>
  <rect x="1080" y="225" width="360" height="225" fill="#F59E42"/>
  <rect x="0" y="450" width="360" height="225" fill="#7C3AED"/>
  <rect x="360" y="450" width="360" height="225" fill="#3CB371"/>
  <rect x="720" y="450" width="360" height="225" fill="#E75480"/>
  <rect x="1080" y="450" width="360" height="225" fill="#8B5C2D"/>
  <rect x="0" y="675" width="360" height="225" fill="#F9A8D4"/>
  <rect x="360" y="675" width="360" height="225" fill="#A7F3D0"/>
  <rect x="720" y="675" width="360" height="225" fill="#F5E9D6"/>
  <rect x="1080" y="675" width="360" height="225" fill="#C4B5FD"/>
  <!-- Cercles, triangles, arcs, motifs déco -->
  <circle cx="180" cy="112" r="60" fill="#FDE68A"/>
  <circle cx="540" cy="112" r="40" fill="#F5E9D6"/>
  <circle cx="900" cy="112" r="60" fill="#F9A8D4"/>
  <polygon points="800,250 850,350 750,350" fill="#3CB371"/>
  <rect x="1100" y="245" width="60" height="60" fill="#FDE68A"/>
  <rect x="1100" y="325" width="60" height="60" fill="#F59E42"/>
  <rect x="1100" y="405" width="60" height="60" fill="#F9A8D4"/>
  <rect x="1100" y="485" width="60" height="60" fill="#3CB371"/>
  <polygon points="200,700 250,800 150,800" fill="#E75480"/>
  <polygon points="1000,700 1050,800 950,800" fill="#7C3AED"/>
  <polygon points="1400,700 1350,800 1450,800" fill="#3CB371"/>
</svg>
